<?xml version="1.0" encoding="UTF-8" standalone="no"?>
<!DOCTYPE svg PUBLIC "-//W3C//DTD SVG 1.1//EN"
 "http://www.w3.org/Graphics/SVG/1.1/DTD/svg11.dtd">
<!-- Generated by graphviz version 2.38.0 (20140413.2041)
 -->
<!-- Title: Clasificacion Pages: 1 -->
<svg width="773pt" height="500pt"
 viewBox="0.00 0.00 773.00 500.00" xmlns="http://www.w3.org/2000/svg" xmlns:xlink="http://www.w3.org/1999/xlink">
<g id="graph0" class="graph" transform="scale(1 1) rotate(0) translate(4 496)">
<title>Clasificacion</title>
<polygon fill="white" stroke="none" points="-4,4 -4,-496 769,-496 769,4 -4,4"/>
<!-- Criterio de Clasificación -->
<g id="node1" class="node"><title>Criterio de Clasificación</title>
<polygon fill="none" stroke="blue" points="0,-314.5 0,-329.5 146,-329.5 146,-314.5 0,-314.5"/>
<text text-anchor="middle" x="73" y="-318.3" font-family="Linux Libertine O" font-size="14.00">Criterio de Clasificación</text>
</g>
<!-- Agente de secado -->
<g id="node2" class="node"><title>Agente de secado</title>
<polygon fill="none" stroke="blue" points="238.5,-425.5 238.5,-440.5 345.5,-440.5 345.5,-425.5 238.5,-425.5"/>
<text text-anchor="middle" x="292" y="-429.3" font-family="Linux Libertine O" font-size="14.00">Agente de secado</text>
</g>
<!-- Criterio de Clasificación&#45;&gt;Agente de secado -->
<g id="edge1" class="edge"><title>Criterio de Clasificación&#45;&gt;Agente de secado</title>
<path fill="none" stroke="black" d="M88.9153,-329.629C125.937,-348.567 222.281,-397.849 267.244,-420.848"/>
<polygon fill="black" stroke="black" points="265.77,-424.026 276.267,-425.464 268.958,-417.794 265.77,-424.026"/>
</g>
<!-- Continuidad del Proceso -->
<g id="node4" class="node"><title>Continuidad del Proceso</title>
<polygon fill="none" stroke="blue" points="218.5,-340.5 218.5,-355.5 365.5,-355.5 365.5,-340.5 218.5,-340.5"/>
<text text-anchor="middle" x="292" y="-344.3" font-family="Linux Libertine O" font-size="14.00">Continuidad del Proceso</text>
</g>
<!-- Criterio de Clasificación&#45;&gt;Continuidad del Proceso -->
<g id="edge3" class="edge"><title>Criterio de Clasificación&#45;&gt;Continuidad del Proceso</title>
<path fill="none" stroke="black" d="M136.765,-329.52C162.294,-332.579 191.957,-336.133 218.41,-339.303"/>
<polygon fill="black" stroke="black" points="218.03,-342.782 228.376,-340.497 218.863,-335.832 218.03,-342.782"/>
</g>
<!-- Método de Transferencia de Calor -->
<g id="node6" class="node"><title>Método de Transferencia de Calor</title>
<polygon fill="none" stroke="blue" points="191,-289.5 191,-304.5 393,-304.5 393,-289.5 191,-289.5"/>
<text text-anchor="middle" x="292" y="-293.3" font-family="Linux Libertine O" font-size="14.00">Método de Transferencia de Calor</text>
</g>
<!-- Criterio de Clasificación&#45;&gt;Método de Transferencia de Calor -->
<g id="edge5" class="edge"><title>Criterio de Clasificación&#45;&gt;Método de Transferencia de Calor</title>
<path fill="none" stroke="black" d="M139.107,-314.499C163.137,-311.731 190.566,-308.571 215.443,-305.705"/>
<polygon fill="black" stroke="black" points="216.03,-309.16 225.564,-304.539 215.229,-302.206 216.03,-309.16"/>
</g>
<!-- Características de Manejo -->
<g id="node8" class="node"><title>Características de Manejo</title>
<polygon fill="none" stroke="blue" points="214,-119.5 214,-134.5 370,-134.5 370,-119.5 214,-119.5"/>
<text text-anchor="middle" x="292" y="-123.3" font-family="Linux Libertine O" font-size="14.00">Características de Manejo</text>
</g>
<!-- Criterio de Clasificación&#45;&gt;Características de Manejo -->
<g id="edge7" class="edge"><title>Criterio de Clasificación&#45;&gt;Características de Manejo</title>
<path fill="none" stroke="black" d="M82.5067,-314.356C114.977,-285.177 231.454,-180.509 274.692,-141.655"/>
<polygon fill="black" stroke="black" points="277.218,-144.091 282.316,-134.803 272.539,-138.884 277.218,-144.091"/>
</g>
<!-- Aire -->
<g id="node3" class="node"><title>Aire</title>
<polygon fill="none" stroke="blue" points="484,-476.5 484,-491.5 538,-491.5 538,-476.5 484,-476.5"/>
<text text-anchor="middle" x="511" y="-480.3" font-family="Linux Libertine O" font-size="14.00">Aire</text>
</g>
<!-- Agente de secado&#45;&gt;Aire -->
<g id="edge2" class="edge"><title>Agente de secado&#45;&gt;Aire</title>
<path fill="none" stroke="black" d="M317.593,-440.594C342.109,-447.988 380.916,-459.219 415,-467 434.253,-471.395 455.916,-475.347 473.688,-478.332"/>
<polygon fill="black" stroke="black" points="473.219,-481.801 483.655,-479.973 474.357,-474.895 473.219,-481.801"/>
</g>
<!-- Vapor -->
<g id="node10" class="node"><title>Vapor</title>
<polygon fill="none" stroke="blue" points="484,-442.5 484,-457.5 538,-457.5 538,-442.5 484,-442.5"/>
<text text-anchor="middle" x="511" y="-446.3" font-family="Linux Libertine O" font-size="14.00">Vapor</text>
</g>
<!-- Agente de secado&#45;&gt;Vapor -->
<g id="edge9" class="edge"><title>Agente de secado&#45;&gt;Vapor</title>
<path fill="none" stroke="black" d="M345.53,-437.115C385.202,-440.223 438.622,-444.408 473.666,-447.154"/>
<polygon fill="black" stroke="black" points="473.673,-450.665 483.916,-447.957 474.22,-443.686 473.673,-450.665"/>
</g>
<!-- Otros -->
<g id="node11" class="node"><title>Otros</title>
<polygon fill="none" stroke="blue" points="484,-408.5 484,-423.5 538,-423.5 538,-408.5 484,-408.5"/>
<text text-anchor="middle" x="511" y="-412.3" font-family="Linux Libertine O" font-size="14.00">Otros</text>
</g>
<!-- Agente de secado&#45;&gt;Otros -->
<g id="edge10" class="edge"><title>Agente de secado&#45;&gt;Otros</title>
<path fill="none" stroke="black" d="M345.53,-428.885C385.202,-425.777 438.622,-421.592 473.666,-418.846"/>
<polygon fill="black" stroke="black" points="474.22,-422.314 483.916,-418.043 473.673,-415.335 474.22,-422.314"/>
</g>
<!-- Por Lote -->
<g id="node5" class="node"><title>Por Lote</title>
<polygon fill="none" stroke="blue" points="482.5,-374.5 482.5,-389.5 539.5,-389.5 539.5,-374.5 482.5,-374.5"/>
<text text-anchor="middle" x="511" y="-378.3" font-family="Linux Libertine O" font-size="14.00">Por Lote</text>
</g>
<!-- Continuidad del Proceso&#45;&gt;Por Lote -->
<g id="edge4" class="edge"><title>Continuidad del Proceso&#45;&gt;Por Lote</title>
<path fill="none" stroke="black" d="M340.89,-355.504C380.423,-361.698 435.761,-370.368 472.221,-376.081"/>
<polygon fill="black" stroke="black" points="472.011,-379.59 482.433,-377.681 473.095,-372.675 472.011,-379.59"/>
</g>
<!-- Flujo Continuo -->
<g id="node12" class="node"><title>Flujo Continuo</title>
<polygon fill="none" stroke="blue" points="464,-340.5 464,-355.5 558,-355.5 558,-340.5 464,-340.5"/>
<text text-anchor="middle" x="511" y="-344.3" font-family="Linux Libertine O" font-size="14.00">Flujo Continuo</text>
</g>
<!-- Continuidad del Proceso&#45;&gt;Flujo Continuo -->
<g id="edge11" class="edge"><title>Continuidad del Proceso&#45;&gt;Flujo Continuo</title>
<path fill="none" stroke="black" d="M365.56,-348C394.293,-348 426.817,-348 453.718,-348"/>
<polygon fill="black" stroke="black" points="453.733,-351.5 463.733,-348 453.733,-344.5 453.733,-351.5"/>
</g>
<!-- Directo -->
<g id="node7" class="node"><title>Directo</title>
<polygon fill="none" stroke="blue" points="484,-306.5 484,-321.5 538,-321.5 538,-306.5 484,-306.5"/>
<text text-anchor="middle" x="511" y="-310.3" font-family="Linux Libertine O" font-size="14.00">Directo</text>
</g>
<!-- Método de Transferencia de Calor&#45;&gt;Directo -->
<g id="edge6" class="edge"><title>Método de Transferencia de Calor&#45;&gt;Directo</title>
<path fill="none" stroke="black" d="M388.811,-304.506C418.939,-306.866 450.391,-309.33 473.701,-311.156"/>
<polygon fill="black" stroke="black" points="473.562,-314.656 483.804,-311.948 474.108,-307.677 473.562,-314.656"/>
</g>
<!-- Indirecto -->
<g id="node13" class="node"><title>Indirecto</title>
<polygon fill="none" stroke="blue" points="481,-272.5 481,-287.5 541,-287.5 541,-272.5 481,-272.5"/>
<text text-anchor="middle" x="511" y="-276.3" font-family="Linux Libertine O" font-size="14.00">Indirecto</text>
</g>
<!-- Método de Transferencia de Calor&#45;&gt;Indirecto -->
<g id="edge12" class="edge"><title>Método de Transferencia de Calor&#45;&gt;Indirecto</title>
<path fill="none" stroke="black" d="M388.811,-289.494C417.758,-287.226 447.926,-284.863 470.922,-283.061"/>
<polygon fill="black" stroke="black" points="471.256,-286.546 480.953,-282.276 470.71,-279.567 471.256,-286.546"/>
</g>
<!-- A través de Campos Magnéticos -->
<g id="node14" class="node"><title>A través de Campos Magnéticos</title>
<polygon fill="none" stroke="blue" points="415,-238.5 415,-253.5 607,-253.5 607,-238.5 415,-238.5"/>
<text text-anchor="middle" x="511" y="-242.3" font-family="Linux Libertine O" font-size="14.00">A través de Campos Magnéticos</text>
</g>
<!-- Método de Transferencia de Calor&#45;&gt;A través de Campos Magnéticos -->
<g id="edge13" class="edge"><title>Método de Transferencia de Calor&#45;&gt;A través de Campos Magnéticos</title>
<path fill="none" stroke="black" d="M317.593,-289.406C342.109,-282.012 380.916,-270.781 415,-263 427.245,-260.205 440.464,-257.589 453.037,-255.287"/>
<polygon fill="black" stroke="black" points="453.725,-258.72 462.951,-253.511 452.491,-251.829 453.725,-258.72"/>
</g>
<!-- Bandeja -->
<g id="node9" class="node"><title>Bandeja</title>
<polygon fill="none" stroke="blue" points="484,-204.5 484,-219.5 538,-219.5 538,-204.5 484,-204.5"/>
<text text-anchor="middle" x="511" y="-208.3" font-family="Linux Libertine O" font-size="14.00">Bandeja</text>
</g>
<!-- Características de Manejo&#45;&gt;Bandeja -->
<g id="edge8" class="edge"><title>Características de Manejo&#45;&gt;Bandeja</title>
<path fill="none" stroke="black" d="M303.841,-134.691C324.451,-148.926 371.152,-179.352 415,-195 433.732,-201.685 455.518,-205.825 473.498,-208.344"/>
<polygon fill="black" stroke="black" points="473.227,-211.838 483.593,-209.646 474.123,-204.895 473.227,-211.838"/>
</g>
<!-- De Paso -->
<g id="node17" class="node"><title>De Paso</title>
<polygon fill="none" stroke="blue" points="484,-170.5 484,-185.5 538,-185.5 538,-170.5 484,-170.5"/>
<text text-anchor="middle" x="511" y="-174.3" font-family="Linux Libertine O" font-size="14.00">De Paso</text>
</g>
<!-- Características de Manejo&#45;&gt;De Paso -->
<g id="edge16" class="edge"><title>Características de Manejo&#45;&gt;De Paso</title>
<path fill="none" stroke="black" d="M317.593,-134.594C342.109,-141.988 380.916,-153.219 415,-161 434.253,-165.395 455.916,-169.347 473.688,-172.332"/>
<polygon fill="black" stroke="black" points="473.219,-175.801 483.655,-173.973 474.357,-168.895 473.219,-175.801"/>
</g>
<!-- Túnel -->
<g id="node18" class="node"><title>Túnel</title>
<polygon fill="none" stroke="blue" points="484,-136.5 484,-151.5 538,-151.5 538,-136.5 484,-136.5"/>
<text text-anchor="middle" x="511" y="-140.3" font-family="Linux Libertine O" font-size="14.00">Túnel</text>
</g>
<!-- Características de Manejo&#45;&gt;Túnel -->
<g id="edge17" class="edge"><title>Características de Manejo&#45;&gt;Túnel</title>
<path fill="none" stroke="black" d="M370.117,-133.041C405.332,-135.8 445.372,-138.937 473.564,-141.146"/>
<polygon fill="black" stroke="black" points="473.511,-144.652 483.754,-141.944 474.058,-137.673 473.511,-144.652"/>
</g>
<!-- Rotatorio -->
<g id="node19" class="node"><title>Rotatorio</title>
<polygon fill="none" stroke="blue" points="480,-102.5 480,-117.5 542,-117.5 542,-102.5 480,-102.5"/>
<text text-anchor="middle" x="511" y="-106.3" font-family="Linux Libertine O" font-size="14.00">Rotatorio</text>
</g>
<!-- Características de Manejo&#45;&gt;Rotatorio -->
<g id="edge18" class="edge"><title>Características de Manejo&#45;&gt;Rotatorio</title>
<path fill="none" stroke="black" d="M370.117,-120.959C403.711,-118.327 441.698,-115.351 469.599,-113.165"/>
<polygon fill="black" stroke="black" points="470.072,-116.639 479.768,-112.368 469.525,-109.66 470.072,-116.639"/>
</g>
<!-- Agitado o Vibratorio -->
<g id="node20" class="node"><title>Agitado o Vibratorio</title>
<polygon fill="none" stroke="blue" points="448,-68.5 448,-83.5 574,-83.5 574,-68.5 448,-68.5"/>
<text text-anchor="middle" x="511" y="-72.3" font-family="Linux Libertine O" font-size="14.00">Agitado o Vibratorio</text>
</g>
<!-- Características de Manejo&#45;&gt;Agitado o Vibratorio -->
<g id="edge19" class="edge"><title>Características de Manejo&#45;&gt;Agitado o Vibratorio</title>
<path fill="none" stroke="black" d="M317.593,-119.406C342.109,-112.012 380.916,-100.781 415,-93 427.245,-90.2048 440.464,-87.5889 453.037,-85.2871"/>
<polygon fill="black" stroke="black" points="453.725,-88.7196 462.951,-83.5109 452.491,-81.8294 453.725,-88.7196"/>
</g>
<!-- Dispersión -->
<g id="node21" class="node"><title>Dispersión</title>
<polygon fill="none" stroke="blue" points="476.5,-34.5 476.5,-49.5 545.5,-49.5 545.5,-34.5 476.5,-34.5"/>
<text text-anchor="middle" x="511" y="-38.3" font-family="Linux Libertine O" font-size="14.00">Dispersión</text>
</g>
<!-- Características de Manejo&#45;&gt;Dispersión -->
<g id="edge20" class="edge"><title>Características de Manejo&#45;&gt;Dispersión</title>
<path fill="none" stroke="black" d="M303.841,-119.309C324.451,-105.074 371.152,-74.6482 415,-59 431.335,-53.1705 449.993,-49.2758 466.424,-46.7044"/>
<polygon fill="black" stroke="black" points="466.932,-50.1675 476.326,-45.2689 465.927,-43.2399 466.932,-50.1675"/>
</g>
<!-- Gravedad -->
<g id="node22" class="node"><title>Gravedad</title>
<polygon fill="none" stroke="blue" points="479.5,-0.5 479.5,-15.5 542.5,-15.5 542.5,-0.5 479.5,-0.5"/>
<text text-anchor="middle" x="511" y="-4.3" font-family="Linux Libertine O" font-size="14.00">Gravedad</text>
</g>
<!-- Características de Manejo&#45;&gt;Gravedad -->
<g id="edge21" class="edge"><title>Características de Manejo&#45;&gt;Gravedad</title>
<path fill="none" stroke="black" d="M299.49,-119.319C316.334,-99.9454 363.715,-48.9381 415,-25 431.722,-17.1946 451.64,-12.9588 468.909,-10.6658"/>
<polygon fill="black" stroke="black" points="469.732,-14.0944 479.266,-9.47467 468.932,-7.14019 469.732,-14.0944"/>
</g>
<!-- Infrarrojo -->
<g id="node15" class="node"><title>Infrarrojo</title>
<polygon fill="none" stroke="blue" points="697.5,-255.5 697.5,-270.5 762.5,-270.5 762.5,-255.5 697.5,-255.5"/>
<text text-anchor="middle" x="730" y="-259.3" font-family="Linux Libertine O" font-size="14.00">Infrarrojo</text>
</g>
<!-- A través de Campos Magnéticos&#45;&gt;Infrarrojo -->
<g id="edge14" class="edge"><title>A través de Campos Magnéticos&#45;&gt;Infrarrojo</title>
<path fill="none" stroke="black" d="M607.179,-253.456C635.225,-255.654 664.477,-257.945 687.285,-259.732"/>
<polygon fill="black" stroke="black" points="687.04,-263.223 697.283,-260.515 687.587,-256.245 687.04,-263.223"/>
</g>
<!-- Dieléctrico -->
<g id="node16" class="node"><title>Dieléctrico</title>
<polygon fill="none" stroke="blue" points="695,-221.5 695,-236.5 765,-236.5 765,-221.5 695,-221.5"/>
<text text-anchor="middle" x="730" y="-225.3" font-family="Linux Libertine O" font-size="14.00">Dieléctrico</text>
</g>
<!-- A través de Campos Magnéticos&#45;&gt;Dieléctrico -->
<g id="edge15" class="edge"><title>A través de Campos Magnéticos&#45;&gt;Dieléctrico</title>
<path fill="none" stroke="black" d="M607.179,-238.544C634.214,-236.426 662.369,-234.22 684.793,-232.463"/>
<polygon fill="black" stroke="black" points="685.292,-235.935 694.988,-231.664 684.746,-228.956 685.292,-235.935"/>
</g>
</g>
</svg>
