<?xml version="1.0" encoding="UTF-8" standalone="no"?>
<!DOCTYPE svg PUBLIC "-//W3C//DTD SVG 1.1//EN"
 "http://www.w3.org/Graphics/SVG/1.1/DTD/svg11.dtd">
<!-- Generated by graphviz version 2.40.1 (20161225.0304)
 -->
<!-- Title: Clasificacion Pages: 1 -->
<svg width="773pt" height="620pt"
 viewBox="0.00 0.00 773.00 620.00" xmlns="http://www.w3.org/2000/svg" xmlns:xlink="http://www.w3.org/1999/xlink">
<g id="graph0" class="graph" transform="scale(1 1) rotate(0) translate(4 616)">
<title>Clasificacion</title>
<polygon fill="#ffffff" stroke="transparent" points="-4,4 -4,-616 769,-616 769,4 -4,4"/>
<!-- Criterio de Clasificación -->
<g id="node1" class="node">
<title>Criterio de Clasificación</title>
<polygon fill="none" stroke="#0000ff" points="0,-399.5 0,-422.5 146,-422.5 146,-399.5 0,-399.5"/>
<text text-anchor="middle" x="73" y="-407.3" font-family="Linux Libertine O" font-size="14.00" fill="#000000">Criterio de Clasificación</text>
</g>
<!-- Agente de secado -->
<g id="node2" class="node">
<title>Agente de secado</title>
<polygon fill="none" stroke="#0000ff" points="238.5,-525.5 238.5,-548.5 345.5,-548.5 345.5,-525.5 238.5,-525.5"/>
<text text-anchor="middle" x="292" y="-533.3" font-family="Linux Libertine O" font-size="14.00" fill="#000000">Agente de secado</text>
</g>
<!-- Criterio de Clasificación&#45;&gt;Agente de secado -->
<g id="edge1" class="edge">
<title>Criterio de Clasificación&#45;&gt;Agente de secado</title>
<path fill="none" stroke="#000000" d="M93.2104,-422.6279C132.2418,-445.0843 218.1065,-494.4859 263.1407,-520.396"/>
<polygon fill="#000000" stroke="#000000" points="261.4252,-523.4469 271.8384,-525.4002 264.9161,-517.3795 261.4252,-523.4469"/>
</g>
<!-- Continuidad del Proceso -->
<g id="node4" class="node">
<title>Continuidad del Proceso</title>
<polygon fill="none" stroke="#0000ff" points="218.5,-420.5 218.5,-443.5 365.5,-443.5 365.5,-420.5 218.5,-420.5"/>
<text text-anchor="middle" x="292" y="-428.3" font-family="Linux Libertine O" font-size="14.00" fill="#000000">Continuidad del Proceso</text>
</g>
<!-- Criterio de Clasificación&#45;&gt;Continuidad del Proceso -->
<g id="edge3" class="edge">
<title>Criterio de Clasificación&#45;&gt;Continuidad del Proceso</title>
<path fill="none" stroke="#000000" d="M146.2283,-418.0219C166.1202,-419.9293 187.8124,-422.0094 208.2381,-423.968"/>
<polygon fill="#000000" stroke="#000000" points="208.1791,-427.4783 218.4675,-424.9489 208.8473,-420.5103 208.1791,-427.4783"/>
</g>
<!-- Método de Transferencia de Calor -->
<g id="node6" class="node">
<title>Método de Transferencia de Calor</title>
<polygon fill="none" stroke="#0000ff" points="191,-357.5 191,-380.5 393,-380.5 393,-357.5 191,-357.5"/>
<text text-anchor="middle" x="292" y="-365.3" font-family="Linux Libertine O" font-size="14.00" fill="#000000">Método de Transferencia de Calor</text>
</g>
<!-- Criterio de Clasificación&#45;&gt;Método de Transferencia de Calor -->
<g id="edge5" class="edge">
<title>Criterio de Clasificación&#45;&gt;Método de Transferencia de Calor</title>
<path fill="none" stroke="#000000" d="M133.1324,-399.4678C160.6573,-394.189 193.4458,-387.9008 222.0672,-382.4118"/>
<polygon fill="#000000" stroke="#000000" points="222.84,-385.8274 232.0018,-380.5065 221.5215,-378.9527 222.84,-385.8274"/>
</g>
<!-- Características de Manejo -->
<g id="node8" class="node">
<title>Características de Manejo</title>
<polygon fill="none" stroke="#0000ff" points="214,-147.5 214,-170.5 370,-170.5 370,-147.5 214,-147.5"/>
<text text-anchor="middle" x="292" y="-155.3" font-family="Linux Libertine O" font-size="14.00" fill="#000000">Características de Manejo</text>
</g>
<!-- Criterio de Clasificación&#45;&gt;Características de Manejo -->
<g id="edge7" class="edge">
<title>Criterio de Clasificación&#45;&gt;Características de Manejo</title>
<path fill="none" stroke="#000000" d="M83.2691,-399.1835C118.123,-359.0777 232.123,-227.8996 275.2593,-178.2633"/>
<polygon fill="#000000" stroke="#000000" points="278.0874,-180.3448 282.0052,-170.5009 272.8038,-175.753 278.0874,-180.3448"/>
</g>
<!-- Aire -->
<g id="node3" class="node">
<title>Aire</title>
<polygon fill="none" stroke="#0000ff" points="484,-588.5 484,-611.5 538,-611.5 538,-588.5 484,-588.5"/>
<text text-anchor="middle" x="511" y="-596.3" font-family="Linux Libertine O" font-size="14.00" fill="#000000">Aire</text>
</g>
<!-- Agente de secado&#45;&gt;Aire -->
<g id="edge2" class="edge">
<title>Agente de secado&#45;&gt;Aire</title>
<path fill="none" stroke="#000000" d="M322.5312,-548.5084C347.2371,-557.5573 383.0511,-570.082 415,-579 434.3211,-584.3932 456.1452,-589.2622 474.0973,-592.9508"/>
<polygon fill="#000000" stroke="#000000" points="473.4064,-596.3819 483.9009,-594.9277 474.7901,-589.52 473.4064,-596.3819"/>
</g>
<!-- Vapor -->
<g id="node10" class="node">
<title>Vapor</title>
<polygon fill="none" stroke="#0000ff" points="484,-546.5 484,-569.5 538,-569.5 538,-546.5 484,-546.5"/>
<text text-anchor="middle" x="511" y="-554.3" font-family="Linux Libertine O" font-size="14.00" fill="#000000">Vapor</text>
</g>
<!-- Agente de secado&#45;&gt;Vapor -->
<g id="edge9" class="edge">
<title>Agente de secado&#45;&gt;Vapor</title>
<path fill="none" stroke="#000000" d="M345.5734,-542.1372C385.2799,-545.9446 438.3977,-551.0381 473.6074,-554.4144"/>
<polygon fill="#000000" stroke="#000000" points="473.6365,-557.9332 483.9249,-555.4038 474.3047,-550.9651 473.6365,-557.9332"/>
</g>
<!-- Otros -->
<g id="node11" class="node">
<title>Otros</title>
<polygon fill="none" stroke="#0000ff" points="484,-504.5 484,-527.5 538,-527.5 538,-504.5 484,-504.5"/>
<text text-anchor="middle" x="511" y="-512.3" font-family="Linux Libertine O" font-size="14.00" fill="#000000">Otros</text>
</g>
<!-- Agente de secado&#45;&gt;Otros -->
<g id="edge10" class="edge">
<title>Agente de secado&#45;&gt;Otros</title>
<path fill="none" stroke="#000000" d="M345.5734,-531.8628C385.2799,-528.0554 438.3977,-522.9619 473.6074,-519.5856"/>
<polygon fill="#000000" stroke="#000000" points="474.3047,-523.0349 483.9249,-518.5962 473.6365,-516.0668 474.3047,-523.0349"/>
</g>
<!-- Por Lote -->
<g id="node5" class="node">
<title>Por Lote</title>
<polygon fill="none" stroke="#0000ff" points="482.5,-462.5 482.5,-485.5 539.5,-485.5 539.5,-462.5 482.5,-462.5"/>
<text text-anchor="middle" x="511" y="-470.3" font-family="Linux Libertine O" font-size="14.00" fill="#000000">Por Lote</text>
</g>
<!-- Continuidad del Proceso&#45;&gt;Por Lote -->
<g id="edge4" class="edge">
<title>Continuidad del Proceso&#45;&gt;Por Lote</title>
<path fill="none" stroke="#000000" d="M352.1324,-443.5322C390.4096,-450.8731 438.866,-460.1661 472.1396,-466.5473"/>
<polygon fill="#000000" stroke="#000000" points="471.8968,-470.0645 482.377,-468.5107 473.2153,-463.1897 471.8968,-470.0645"/>
</g>
<!-- Flujo Continuo -->
<g id="node12" class="node">
<title>Flujo Continuo</title>
<polygon fill="none" stroke="#0000ff" points="464,-420.5 464,-443.5 558,-443.5 558,-420.5 464,-420.5"/>
<text text-anchor="middle" x="511" y="-428.3" font-family="Linux Libertine O" font-size="14.00" fill="#000000">Flujo Continuo</text>
</g>
<!-- Continuidad del Proceso&#45;&gt;Flujo Continuo -->
<g id="edge11" class="edge">
<title>Continuidad del Proceso&#45;&gt;Flujo Continuo</title>
<path fill="none" stroke="#000000" d="M365.5331,-432C394.2913,-432 426.773,-432 453.736,-432"/>
<polygon fill="#000000" stroke="#000000" points="453.7804,-435.5001 463.7804,-432 453.7804,-428.5001 453.7804,-435.5001"/>
</g>
<!-- Directo -->
<g id="node7" class="node">
<title>Directo</title>
<polygon fill="none" stroke="#0000ff" points="484,-378.5 484,-401.5 538,-401.5 538,-378.5 484,-378.5"/>
<text text-anchor="middle" x="511" y="-386.3" font-family="Linux Libertine O" font-size="14.00" fill="#000000">Directo</text>
</g>
<!-- Método de Transferencia de Calor&#45;&gt;Directo -->
<g id="edge6" class="edge">
<title>Método de Transferencia de Calor&#45;&gt;Directo</title>
<path fill="none" stroke="#000000" d="M393.1663,-378.7009C421.9983,-381.4656 451.6052,-384.3046 473.9294,-386.4453"/>
<polygon fill="#000000" stroke="#000000" points="473.6674,-389.9361 483.9559,-387.4067 474.3356,-382.9681 473.6674,-389.9361"/>
</g>
<!-- Indirecto -->
<g id="node13" class="node">
<title>Indirecto</title>
<polygon fill="none" stroke="#0000ff" points="481,-336.5 481,-359.5 541,-359.5 541,-336.5 481,-336.5"/>
<text text-anchor="middle" x="511" y="-344.3" font-family="Linux Libertine O" font-size="14.00" fill="#000000">Indirecto</text>
</g>
<!-- Método de Transferencia de Calor&#45;&gt;Indirecto -->
<g id="edge12" class="edge">
<title>Método de Transferencia de Calor&#45;&gt;Indirecto</title>
<path fill="none" stroke="#000000" d="M393.1663,-359.2991C420.5194,-356.6762 448.57,-353.9864 470.4378,-351.8895"/>
<polygon fill="#000000" stroke="#000000" points="471.0258,-355.3493 480.6461,-350.9107 470.3576,-348.3812 471.0258,-355.3493"/>
</g>
<!-- A través de Campos Magnéticos -->
<g id="node14" class="node">
<title>A través de Campos Magnéticos</title>
<polygon fill="none" stroke="#0000ff" points="415,-294.5 415,-317.5 607,-317.5 607,-294.5 415,-294.5"/>
<text text-anchor="middle" x="511" y="-302.3" font-family="Linux Libertine O" font-size="14.00" fill="#000000">A través de Campos Magnéticos</text>
</g>
<!-- Método de Transferencia de Calor&#45;&gt;A través de Campos Magnéticos -->
<g id="edge13" class="edge">
<title>Método de Transferencia de Calor&#45;&gt;A través de Campos Magnéticos</title>
<path fill="none" stroke="#000000" d="M322.5312,-357.4916C347.2371,-348.4427 383.0511,-335.918 415,-327 424.0861,-324.4638 433.7257,-322.0435 443.2558,-319.8073"/>
<polygon fill="#000000" stroke="#000000" points="444.1544,-323.1922 453.1198,-317.5466 442.5906,-316.3691 444.1544,-323.1922"/>
</g>
<!-- Bandeja -->
<g id="node9" class="node">
<title>Bandeja</title>
<polygon fill="none" stroke="#0000ff" points="484,-252.5 484,-275.5 538,-275.5 538,-252.5 484,-252.5"/>
<text text-anchor="middle" x="511" y="-260.3" font-family="Linux Libertine O" font-size="14.00" fill="#000000">Bandeja</text>
</g>
<!-- Características de Manejo&#45;&gt;Bandeja -->
<g id="edge8" class="edge">
<title>Características de Manejo&#45;&gt;Bandeja</title>
<path fill="none" stroke="#000000" d="M305.3482,-170.7237C326.8833,-189.0043 371.3116,-224.1535 415,-243 433.5506,-251.0024 455.4805,-256.0949 473.6941,-259.2572"/>
<polygon fill="#000000" stroke="#000000" points="473.2299,-262.7275 483.6593,-260.8626 474.3433,-255.8166 473.2299,-262.7275"/>
</g>
<!-- De Paso -->
<g id="node17" class="node">
<title>De Paso</title>
<polygon fill="none" stroke="#0000ff" points="484,-210.5 484,-233.5 538,-233.5 538,-210.5 484,-210.5"/>
<text text-anchor="middle" x="511" y="-218.3" font-family="Linux Libertine O" font-size="14.00" fill="#000000">De Paso</text>
</g>
<!-- Características de Manejo&#45;&gt;De Paso -->
<g id="edge16" class="edge">
<title>Características de Manejo&#45;&gt;De Paso</title>
<path fill="none" stroke="#000000" d="M322.5312,-170.5084C347.2371,-179.5573 383.0511,-192.082 415,-201 434.3211,-206.3932 456.1452,-211.2622 474.0973,-214.9508"/>
<polygon fill="#000000" stroke="#000000" points="473.4064,-218.3819 483.9009,-216.9277 474.7901,-211.52 473.4064,-218.3819"/>
</g>
<!-- Túnel -->
<g id="node18" class="node">
<title>Túnel</title>
<polygon fill="none" stroke="#0000ff" points="484,-168.5 484,-191.5 538,-191.5 538,-168.5 484,-168.5"/>
<text text-anchor="middle" x="511" y="-176.3" font-family="Linux Libertine O" font-size="14.00" fill="#000000">Túnel</text>
</g>
<!-- Características de Manejo&#45;&gt;Túnel -->
<g id="edge17" class="edge">
<title>Características de Manejo&#45;&gt;Túnel</title>
<path fill="none" stroke="#000000" d="M370.1365,-166.4925C405.3189,-169.8662 445.219,-173.6922 473.5492,-176.4088"/>
<polygon fill="#000000" stroke="#000000" points="473.5182,-179.9218 483.8067,-177.3924 474.1864,-172.9538 473.5182,-179.9218"/>
</g>
<!-- Rotatorio -->
<g id="node19" class="node">
<title>Rotatorio</title>
<polygon fill="none" stroke="#0000ff" points="480,-126.5 480,-149.5 542,-149.5 542,-126.5 480,-126.5"/>
<text text-anchor="middle" x="511" y="-134.3" font-family="Linux Libertine O" font-size="14.00" fill="#000000">Rotatorio</text>
</g>
<!-- Características de Manejo&#45;&gt;Rotatorio -->
<g id="edge18" class="edge">
<title>Características de Manejo&#45;&gt;Rotatorio</title>
<path fill="none" stroke="#000000" d="M370.1365,-151.5075C403.685,-148.2905 441.5232,-144.6622 469.5291,-141.9767"/>
<polygon fill="#000000" stroke="#000000" points="470.1315,-145.435 479.7517,-140.9964 469.4633,-138.467 470.1315,-145.435"/>
</g>
<!-- Agitado o Vibratorio -->
<g id="node20" class="node">
<title>Agitado o Vibratorio</title>
<polygon fill="none" stroke="#0000ff" points="448,-84.5 448,-107.5 574,-107.5 574,-84.5 448,-84.5"/>
<text text-anchor="middle" x="511" y="-92.3" font-family="Linux Libertine O" font-size="14.00" fill="#000000">Agitado o Vibratorio</text>
</g>
<!-- Características de Manejo&#45;&gt;Agitado o Vibratorio -->
<g id="edge19" class="edge">
<title>Características de Manejo&#45;&gt;Agitado o Vibratorio</title>
<path fill="none" stroke="#000000" d="M322.5312,-147.4916C347.2371,-138.4427 383.0511,-125.918 415,-117 424.0861,-114.4638 433.7257,-112.0435 443.2558,-109.8073"/>
<polygon fill="#000000" stroke="#000000" points="444.1544,-113.1922 453.1198,-107.5466 442.5906,-106.3691 444.1544,-113.1922"/>
</g>
<!-- Dispersión -->
<g id="node21" class="node">
<title>Dispersión</title>
<polygon fill="none" stroke="#0000ff" points="476.5,-42.5 476.5,-65.5 545.5,-65.5 545.5,-42.5 476.5,-42.5"/>
<text text-anchor="middle" x="511" y="-50.3" font-family="Linux Libertine O" font-size="14.00" fill="#000000">Dispersión</text>
</g>
<!-- Características de Manejo&#45;&gt;Dispersión -->
<g id="edge20" class="edge">
<title>Características de Manejo&#45;&gt;Dispersión</title>
<path fill="none" stroke="#000000" d="M305.3482,-147.2763C326.8833,-128.9957 371.3116,-93.8465 415,-75 431.0863,-68.0606 449.7138,-63.3094 466.2556,-60.1075"/>
<polygon fill="#000000" stroke="#000000" points="467.0231,-63.5257 476.2443,-58.3084 465.7822,-56.6365 467.0231,-63.5257"/>
</g>
<!-- Gravedad -->
<g id="node22" class="node">
<title>Gravedad</title>
<polygon fill="none" stroke="#0000ff" points="479.5,-.5 479.5,-23.5 542.5,-23.5 542.5,-.5 479.5,-.5"/>
<text text-anchor="middle" x="511" y="-8.3" font-family="Linux Libertine O" font-size="14.00" fill="#000000">Gravedad</text>
</g>
<!-- Características de Manejo&#45;&gt;Gravedad -->
<g id="edge21" class="edge">
<title>Características de Manejo&#45;&gt;Gravedad</title>
<path fill="none" stroke="#000000" d="M299.6659,-147.4304C316.9854,-122.2768 361.8009,-62.5065 415,-33 431.4628,-23.869 451.5692,-18.7079 469.1197,-15.7909"/>
<polygon fill="#000000" stroke="#000000" points="469.7275,-19.2393 479.1109,-14.3197 468.7077,-12.3139 469.7275,-19.2393"/>
</g>
<!-- Infrarrojo -->
<g id="node15" class="node">
<title>Infrarrojo</title>
<polygon fill="none" stroke="#0000ff" points="697.5,-315.5 697.5,-338.5 762.5,-338.5 762.5,-315.5 697.5,-315.5"/>
<text text-anchor="middle" x="730" y="-323.3" font-family="Linux Libertine O" font-size="14.00" fill="#000000">Infrarrojo</text>
</g>
<!-- A través de Campos Magnéticos&#45;&gt;Infrarrojo -->
<g id="edge14" class="edge">
<title>A través de Campos Magnéticos&#45;&gt;Infrarrojo</title>
<path fill="none" stroke="#000000" d="M607.0566,-315.2109C635.1616,-317.9059 664.4662,-320.7159 687.4128,-322.9163"/>
<polygon fill="#000000" stroke="#000000" points="687.1929,-326.4112 697.4813,-323.8818 687.8611,-319.4431 687.1929,-326.4112"/>
</g>
<!-- Dieléctrico -->
<g id="node16" class="node">
<title>Dieléctrico</title>
<polygon fill="none" stroke="#0000ff" points="695,-273.5 695,-296.5 765,-296.5 765,-273.5 695,-273.5"/>
<text text-anchor="middle" x="730" y="-281.3" font-family="Linux Libertine O" font-size="14.00" fill="#000000">Dieléctrico</text>
</g>
<!-- A través de Campos Magnéticos&#45;&gt;Dieléctrico -->
<g id="edge15" class="edge">
<title>A través de Campos Magnéticos&#45;&gt;Dieléctrico</title>
<path fill="none" stroke="#000000" d="M607.0566,-296.7891C634.0429,-294.2014 662.1351,-291.5076 684.6428,-289.3493"/>
<polygon fill="#000000" stroke="#000000" points="685.2696,-292.8054 694.8898,-288.3667 684.6013,-285.8373 685.2696,-292.8054"/>
</g>
</g>
</svg>
