<?xml version="1.0" encoding="UTF-8" standalone="no"?>
<!DOCTYPE svg PUBLIC "-//W3C//DTD SVG 1.1//EN"
 "http://www.w3.org/Graphics/SVG/1.1/DTD/svg11.dtd">
<!-- Generated by graphviz version 2.38.0 (20140413.2041)
 -->
<!-- Title: Clasificacion Pages: 1 -->
<svg width="642pt" height="800pt"
 viewBox="0.00 0.00 642.00 800.00" xmlns="http://www.w3.org/2000/svg" xmlns:xlink="http://www.w3.org/1999/xlink">
<g id="graph0" class="graph" transform="scale(1 1) rotate(0) translate(4 796)">
<title>Clasificacion</title>
<polygon fill="white" stroke="none" points="-4,4 -4,-796 638,-796 638,4 -4,4"/>
<!-- Criterio de Clasificación -->
<g id="node1" class="node"><title>Criterio de Clasificación</title>
<polygon fill="none" stroke="blue" points="122,-535 -7.10543e-15,-535 -7.10543e-15,-499 122,-499 122,-535"/>
<text text-anchor="middle" x="61" y="-513.3" font-family="Liberation Sans Narrow" font-size="14.00">Criterio de Clasificación</text>
</g>
<!-- Agente de secado -->
<g id="node2" class="node"><title>Agente de secado</title>
<polygon fill="none" stroke="blue" points="296,-711 199,-711 199,-675 296,-675 296,-711"/>
<text text-anchor="middle" x="247.5" y="-689.3" font-family="Liberation Sans Narrow" font-size="14.00">Agente de secado</text>
</g>
<!-- Criterio de Clasificación&#45;&#45;Agente de secado -->
<g id="edge1" class="edge"><title>Criterio de Clasificación&#45;&#45;Agente de secado</title>
<path fill="none" stroke="black" d="M81.0498,-535.172C116.496,-568.986 192.186,-641.188 227.554,-674.927"/>
</g>
<!-- Continuidad del Proceso -->
<g id="node4" class="node"><title>Continuidad del Proceso</title>
<polygon fill="none" stroke="blue" points="312,-576 183,-576 183,-540 312,-540 312,-576"/>
<text text-anchor="middle" x="247.5" y="-554.3" font-family="Liberation Sans Narrow" font-size="14.00">Continuidad del Proceso</text>
</g>
<!-- Criterio de Clasificación&#45;&#45;Continuidad del Proceso -->
<g id="edge3" class="edge"><title>Criterio de Clasificación&#45;&#45;Continuidad del Proceso</title>
<path fill="none" stroke="black" d="M122.157,-530.368C141.611,-534.691 163.241,-539.498 182.933,-543.874"/>
</g>
<!-- Método de Transferencia de Calor -->
<g id="node6" class="node"><title>Método de Transferencia de Calor</title>
<polygon fill="none" stroke="blue" points="337,-495 158,-495 158,-459 337,-459 337,-495"/>
<text text-anchor="middle" x="247.5" y="-473.3" font-family="Liberation Sans Narrow" font-size="14.00">Método de Transferencia de Calor</text>
</g>
<!-- Criterio de Clasificación&#45;&#45;Método de Transferencia de Calor -->
<g id="edge5" class="edge"><title>Criterio de Clasificación&#45;&#45;Método de Transferencia de Calor</title>
<path fill="none" stroke="black" d="M122.157,-503.958C135.302,-501.108 149.439,-498.043 163.302,-495.038"/>
</g>
<!-- Características de Manejo -->
<g id="node8" class="node"><title>Características de Manejo</title>
<polygon fill="none" stroke="blue" points="316,-225 179,-225 179,-189 316,-189 316,-225"/>
<text text-anchor="middle" x="247.5" y="-203.3" font-family="Liberation Sans Narrow" font-size="14.00">Características de Manejo</text>
</g>
<!-- Criterio de Clasificación&#45;&#45;Características de Manejo -->
<g id="edge7" class="edge"><title>Criterio de Clasificación&#45;&#45;Características de Manejo</title>
<path fill="none" stroke="black" d="M72.717,-498.993C105.326,-444.203 203.105,-279.913 235.753,-225.057"/>
</g>
<!-- Aire -->
<g id="node3" class="node"><title>Aire</title>
<polygon fill="none" stroke="blue" points="485,-792 431,-792 431,-756 485,-756 485,-792"/>
<text text-anchor="middle" x="458" y="-770.3" font-family="Liberation Sans Narrow" font-size="14.00">Aire</text>
</g>
<!-- Agente de secado&#45;&#45;Aire -->
<g id="edge2" class="edge"><title>Agente de secado&#45;&#45;Aire</title>
<path fill="none" stroke="black" d="M287.348,-711.021C311.704,-722.026 343.896,-736.041 373,-747 392.066,-754.179 413.994,-761.186 430.664,-766.263"/>
</g>
<!-- Vapor -->
<g id="node10" class="node"><title>Vapor</title>
<polygon fill="none" stroke="blue" points="485,-738 431,-738 431,-702 485,-702 485,-738"/>
<text text-anchor="middle" x="458" y="-716.3" font-family="Liberation Sans Narrow" font-size="14.00">Vapor</text>
</g>
<!-- Agente de secado&#45;&#45;Vapor -->
<g id="edge9" class="edge"><title>Agente de secado&#45;&#45;Vapor</title>
<path fill="none" stroke="black" d="M296.073,-699.161C337.899,-704.577 397.212,-712.258 430.918,-716.622"/>
</g>
<!-- Otros -->
<g id="node11" class="node"><title>Otros</title>
<polygon fill="none" stroke="blue" points="485,-684 431,-684 431,-648 485,-648 485,-684"/>
<text text-anchor="middle" x="458" y="-662.3" font-family="Liberation Sans Narrow" font-size="14.00">Otros</text>
</g>
<!-- Agente de secado&#45;&#45;Otros -->
<g id="edge10" class="edge"><title>Agente de secado&#45;&#45;Otros</title>
<path fill="none" stroke="black" d="M296.073,-686.839C337.899,-681.423 397.212,-673.742 430.918,-669.378"/>
</g>
<!-- Por Lote -->
<g id="node5" class="node"><title>Por Lote</title>
<polygon fill="none" stroke="blue" points="485,-630 431,-630 431,-594 485,-594 485,-630"/>
<text text-anchor="middle" x="458" y="-608.3" font-family="Liberation Sans Narrow" font-size="14.00">Por Lote</text>
</g>
<!-- Continuidad del Proceso&#45;&#45;Por Lote -->
<g id="edge4" class="edge"><title>Continuidad del Proceso&#45;&#45;Por Lote</title>
<path fill="none" stroke="black" d="M312.19,-574.495C352.069,-584.824 401.33,-597.582 430.9,-605.24"/>
</g>
<!-- Flujo Continuo -->
<g id="node12" class="node"><title>Flujo Continuo</title>
<polygon fill="none" stroke="blue" points="496,-576 420,-576 420,-540 496,-540 496,-576"/>
<text text-anchor="middle" x="458" y="-554.3" font-family="Liberation Sans Narrow" font-size="14.00">Flujo Continuo</text>
</g>
<!-- Continuidad del Proceso&#45;&#45;Flujo Continuo -->
<g id="edge11" class="edge"><title>Continuidad del Proceso&#45;&#45;Flujo Continuo</title>
<path fill="none" stroke="black" d="M312.19,-558C347.399,-558 389.92,-558 419.747,-558"/>
</g>
<!-- Directo -->
<g id="node7" class="node"><title>Directo</title>
<polygon fill="none" stroke="blue" points="485,-522 431,-522 431,-486 485,-486 485,-522"/>
<text text-anchor="middle" x="458" y="-500.3" font-family="Liberation Sans Narrow" font-size="14.00">Directo</text>
</g>
<!-- Método de Transferencia de Calor&#45;&#45;Directo -->
<g id="edge6" class="edge"><title>Método de Transferencia de Calor&#45;&#45;Directo</title>
<path fill="none" stroke="black" d="M337.225,-488.49C371.141,-492.882 407.3,-497.564 430.906,-500.621"/>
</g>
<!-- Indirecto -->
<g id="node13" class="node"><title>Indirecto</title>
<polygon fill="none" stroke="blue" points="485,-468 431,-468 431,-432 485,-432 485,-468"/>
<text text-anchor="middle" x="458" y="-446.3" font-family="Liberation Sans Narrow" font-size="14.00">Indirecto</text>
</g>
<!-- Método de Transferencia de Calor&#45;&#45;Indirecto -->
<g id="edge12" class="edge"><title>Método de Transferencia de Calor&#45;&#45;Indirecto</title>
<path fill="none" stroke="black" d="M337.225,-465.51C371.141,-461.118 407.3,-456.436 430.906,-453.379"/>
</g>
<!-- A través de Campos Magnéticos -->
<g id="node14" class="node"><title>A través de Campos Magnéticos</title>
<polygon fill="none" stroke="blue" points="543,-414 373,-414 373,-378 543,-378 543,-414"/>
<text text-anchor="middle" x="458" y="-392.3" font-family="Liberation Sans Narrow" font-size="14.00">A través de Campos Magnéticos</text>
</g>
<!-- Método de Transferencia de Calor&#45;&#45;A través de Campos Magnéticos -->
<g id="edge13" class="edge"><title>Método de Transferencia de Calor&#45;&#45;A través de Campos Magnéticos</title>
<path fill="none" stroke="black" d="M287.348,-458.979C311.704,-447.974 343.896,-433.959 373,-423 381.171,-419.923 389.868,-416.878 398.451,-414.003"/>
</g>
<!-- Bandeja -->
<g id="node9" class="node"><title>Bandeja</title>
<polygon fill="none" stroke="blue" points="485,-360 431,-360 431,-324 485,-324 485,-360"/>
<text text-anchor="middle" x="458" y="-338.3" font-family="Liberation Sans Narrow" font-size="14.00">Bandeja</text>
</g>
<!-- Características de Manejo&#45;&#45;Bandeja -->
<g id="edge8" class="edge"><title>Características de Manejo&#45;&#45;Bandeja</title>
<path fill="none" stroke="black" d="M264.9,-225.216C287.209,-248.986 329.366,-290.434 373,-315 391.153,-325.22 413.726,-332.202 430.899,-336.501"/>
</g>
<!-- De Paso -->
<g id="node17" class="node"><title>De Paso</title>
<polygon fill="none" stroke="blue" points="485,-306 431,-306 431,-270 485,-270 485,-306"/>
<text text-anchor="middle" x="458" y="-284.3" font-family="Liberation Sans Narrow" font-size="14.00">De Paso</text>
</g>
<!-- Características de Manejo&#45;&#45;De Paso -->
<g id="edge16" class="edge"><title>Características de Manejo&#45;&#45;De Paso</title>
<path fill="none" stroke="black" d="M287.348,-225.021C311.704,-236.026 343.896,-250.041 373,-261 392.066,-268.179 413.994,-275.186 430.664,-280.263"/>
</g>
<!-- Túnel -->
<g id="node18" class="node"><title>Túnel</title>
<polygon fill="none" stroke="blue" points="485,-252 431,-252 431,-216 485,-216 485,-252"/>
<text text-anchor="middle" x="458" y="-230.3" font-family="Liberation Sans Narrow" font-size="14.00">Túnel</text>
</g>
<!-- Características de Manejo&#45;&#45;Túnel -->
<g id="edge17" class="edge"><title>Características de Manejo&#45;&#45;Túnel</title>
<path fill="none" stroke="black" d="M316.194,-215.766C355.315,-220.832 402.299,-226.916 430.888,-230.619"/>
</g>
<!-- Rotatorio -->
<g id="node19" class="node"><title>Rotatorio</title>
<polygon fill="none" stroke="blue" points="485,-198 431,-198 431,-162 485,-162 485,-198"/>
<text text-anchor="middle" x="458" y="-176.3" font-family="Liberation Sans Narrow" font-size="14.00">Rotatorio</text>
</g>
<!-- Características de Manejo&#45;&#45;Rotatorio -->
<g id="edge18" class="edge"><title>Características de Manejo&#45;&#45;Rotatorio</title>
<path fill="none" stroke="black" d="M316.194,-198.234C355.315,-193.168 402.299,-187.084 430.888,-183.381"/>
</g>
<!-- Agitado o Vibratorio -->
<g id="node20" class="node"><title>Agitado o Vibratorio</title>
<polygon fill="none" stroke="blue" points="509.5,-144 406.5,-144 406.5,-108 509.5,-108 509.5,-144"/>
<text text-anchor="middle" x="458" y="-122.3" font-family="Liberation Sans Narrow" font-size="14.00">Agitado o Vibratorio</text>
</g>
<!-- Características de Manejo&#45;&#45;Agitado o Vibratorio -->
<g id="edge19" class="edge"><title>Características de Manejo&#45;&#45;Agitado o Vibratorio</title>
<path fill="none" stroke="black" d="M287.348,-188.979C311.704,-177.974 343.896,-163.959 373,-153 383.608,-149.006 395.103,-145.064 406.084,-141.479"/>
</g>
<!-- Dispersión -->
<g id="node21" class="node"><title>Dispersión</title>
<polygon fill="none" stroke="blue" points="486,-90 430,-90 430,-54 486,-54 486,-90"/>
<text text-anchor="middle" x="458" y="-68.3" font-family="Liberation Sans Narrow" font-size="14.00">Dispersión</text>
</g>
<!-- Características de Manejo&#45;&#45;Dispersión -->
<g id="edge20" class="edge"><title>Características de Manejo&#45;&#45;Dispersión</title>
<path fill="none" stroke="black" d="M264.9,-188.784C287.209,-165.014 329.366,-123.566 373,-99 390.753,-89.005 412.732,-82.1078 429.754,-77.7873"/>
</g>
<!-- Gravedad -->
<g id="node22" class="node"><title>Gravedad</title>
<polygon fill="none" stroke="blue" points="485,-36 431,-36 431,-0 485,-0 485,-36"/>
<text text-anchor="middle" x="458" y="-14.3" font-family="Liberation Sans Narrow" font-size="14.00">Gravedad</text>
</g>
<!-- Características de Manejo&#45;&#45;Gravedad -->
<g id="edge21" class="edge"><title>Características de Manejo&#45;&#45;Gravedad</title>
<path fill="none" stroke="black" d="M257.649,-188.776C275.342,-155.351 317.451,-84.0954 373,-45 390.287,-32.8335 413.346,-25.9381 430.93,-22.1664"/>
</g>
<!-- Infrarrojo -->
<g id="node15" class="node"><title>Infrarrojo</title>
<polygon fill="none" stroke="blue" points="633.5,-441 579.5,-441 579.5,-405 633.5,-405 633.5,-441"/>
<text text-anchor="middle" x="606.5" y="-419.3" font-family="Liberation Sans Narrow" font-size="14.00">Infrarrojo</text>
</g>
<!-- A través de Campos Magnéticos&#45;&#45;Infrarrojo -->
<g id="edge14" class="edge"><title>A través de Campos Magnéticos&#45;&#45;Infrarrojo</title>
<path fill="none" stroke="black" d="M543.371,-411.55C556.473,-413.964 569.09,-416.29 579.491,-418.206"/>
</g>
<!-- Dieléctrico -->
<g id="node16" class="node"><title>Dieléctrico</title>
<polygon fill="none" stroke="blue" points="634,-387 579,-387 579,-351 634,-351 634,-387"/>
<text text-anchor="middle" x="606.5" y="-365.3" font-family="Liberation Sans Narrow" font-size="14.00">Dieléctrico</text>
</g>
<!-- A través de Campos Magnéticos&#45;&#45;Dieléctrico -->
<g id="edge15" class="edge"><title>A través de Campos Magnéticos&#45;&#45;Dieléctrico</title>
<path fill="none" stroke="black" d="M543.371,-380.45C556.219,-378.082 568.6,-375.801 578.882,-373.906"/>
</g>
</g>
</svg>
